<svg width="45" height="45" viewBox="0 0 45 45" fill="none" xmlns="http://www.w3.org/2000/svg">
<circle cx="22.5" cy="22.5" r="22.5" fill="#38393E"/>
<g clip-path="url(#clip0_2_22)">
<path d="M22.5012 13.4725C25.3396 10.9242 29.7258 11.0087 32.4603 13.748C35.1935 16.4885 35.2878 20.853 32.7455 23.6999L22.4988 33.961L12.2545 23.6999C9.71221 20.853 9.80766 16.4813 12.5397 13.748C15.2766 11.0124 19.6544 10.9205 22.5012 13.4725ZM30.7493 15.4554C28.9368 13.6405 26.0126 13.5668 24.1155 15.2705L22.5024 16.7181L20.8881 15.2717C18.985 13.5656 16.0668 13.6405 14.2495 15.4578C12.4491 17.2582 12.3585 20.1401 14.0175 22.0445L22.5 30.5402L30.9825 22.0457C32.6427 20.1401 32.5521 17.2619 30.7493 15.4554Z" fill="white"/>
</g>
<defs>
<clipPath id="clip0_2_22">
<rect width="29" height="29" fill="white" transform="translate(8 8)"/>
</clipPath>
</defs>
</svg>
